:SAMPLES-PER-SECOND 30
:FRAME-RANGE 1-2045
:FULLY-SPECIFIED
:DEGREES
1279
root  45.2369 37.9389 40.14 -162.547 0.442429 -176.622
RightUpLeg  -38.6389 -16.1544 -10.7223
RightLeg  20.9235 -6.36286 -2.8888
RightFoot  -12.4818 0.0428546 12.8056
RightToes  -5.28216e-011 1.2921e-014 -6.02303e-014
Spine  21.8127 0.959959 10.9568
Spine1  0.421979 5.88509 -11.6455
HEad  1.63785 -5.75283 2.44922
LeftShoulder1  3.22874 -10.3017 -17.3264
LeftArm  -16.6308 -27.9972 -42.2042
LeftForeArm  -10.2399 -12.7365 -6.78768
LeftHand  0.039884 -1.4288 -0.549676
RightShoulder  2.00561 11.2145 6.23321
RightArm  22.609 73.0979 104.016
RightForeArm  48.5001 6.93317 2.32681
RightHand  -0.105949 -4.78207 -18.1091
LeftUpLeg  -33.5663 11.659 8.7799
LeftLeg  34.3227 6.12222 4.84846
LeftFoot  -13.0175 -0.0921581 -11.5837
LeftToes  9.43379e-011 5.24309e-011 -4.66411e-011
1280
root  45.9353 37.8692 39.333 -161.886 1.18228 -177.458
RightUpLeg  -39.1597 -17.9444 -10.5842
RightLeg  16.6756 -10.7695 -3.75774
RightFoot  -10.833 -0.119455 10.2692
RightToes  -5.28216e-011 1.2921e-014 -6.02303e-014
Spine  21.975 0.770437 11.5612
Spine1  0.655441 5.49526 -10.262
HEad  3.136 -4.83893 1.09823
LeftShoulder1  3.26617 -10.4486 -17.3461
LeftArm  -16.8522 -26.4028 -45.1544
LeftForeArm  -8.90904 -11.8695 -6.78588
LeftHand  -0.0242606 -0.911732 0.541604
RightShoulder  1.96826 11.0131 6.15711
RightArm  27.1102 72.5856 105.845
RightForeArm  50.9104 9.03919 4.71948
RightHand  -0.110817 -4.77022 -18.7718
LeftUpLeg  -32.2757 13.0053 8.87881
LeftLeg  33.5219 5.65202 4.38247
LeftFoot  -13.6321 -0.180999 -13.0761
LeftToes  9.43379e-011 5.24309e-011 -4.66411e-011
1281
root  46.7914 37.7196 38.4173 -161.755 2.36557 -178.681
RightUpLeg  -39.571 -18.235 -11.4542
RightLeg  14.4652 -14.0347 -3.75454
RightFoot  -10.6938 -0.125913 9.37761
RightToes  -5.28216e-011 1.2921e-014 -6.02303e-014
Spine  21.857 0.331574 11.3654
Spine1  1.21331 4.86343 -9.39372
HEad  5.87117 -1.71852 -1.27833
LeftShoulder1  3.32512 -10.4153 -17.8748
LeftArm  -16.0345 -24.7864 -46.8894
LeftForeArm  -7.16861 -10.5512 -7.15201
LeftHand  -0.0277024 -0.350012 0.60355
RightShoulder  1.90499 10.5628 6.14372
RightArm  34.2808 70.5943 106.073
RightForeArm  41.8045 12.8176 6.92665
RightHand  -0.349074 -1.97287 -11.6613
LeftUpLeg  -30.2653 13.6376 9.20384
LeftLeg  33.227 5.64868 4.33502
LeftFoot  -14.1166 -0.297236 -15.662
LeftToes  9.43379e-011 5.24309e-011 -4.66411e-011
1282
root  47.8109 37.5126 37.3602 -161.733 4.32599 179.84
RightUpLeg  -41.0254 -19.3152 -10.8337
RightLeg  14.438 -13.2619 -3.54138
RightFoot  -10.9585 -0.107718 9.88214
RightToes  -5.28216e-011 1.2921e-014 -6.02303e-014
Spine  21.2832 -0.17952 10.6119
Spine1  1.64901 4.20317 -9.21656
HEad  7.71479 3.26116 -4.41676
LeftShoulder1  3.29335 -10.0917 -18.2533
LeftArm  -14.3795 -22.7867 -48.5232
LeftForeArm  -4.88399 -8.9327 -7.79352
LeftHand  -0.0194573 0.114365 0.418526
RightShoulder  1.86127 10.009 6.41461
RightArm  51.6902 66.5933 106.361
RightForeArm  26.2641 18.4171 6.38686
RightHand  -0.320854 -0.306967 -7.33848
LeftUpLeg  -27.6967 14.0377 9.57516
LeftLeg  33.0729 6.16371 4.66982
LeftFoot  -14.3709 -0.417033 -18.856
LeftToes  9.43379e-011 5.24309e-011 -4.66411e-011
1283
root  48.9746 37.2144 36.1675 -161.546 6.45319 178.381
RightUpLeg  -43.2091 -20.2028 -8.97884
RightLeg  16.7239 -11.7628 -4.11758
RightFoot  -11.6535 -0.0491842 11.0555
RightToes  -5.28216e-011 1.2921e-014 -6.02303e-014
Spine  20.877 -0.682306 9.49491
Spine1  0.796363 3.31468 -8.68833
HEad  8.44422 8.37444 -8.61942
LeftShoulder1  3.31744 -9.59137 -19.4859
LeftArm  -11.4748 -19.9531 -49.2673
LeftForeArm  -3.23205 -7.9517 -8.77077
LeftHand  0.0222913 0.0470182 -0.494502
RightShoulder  1.90116 9.40201 7.51658
RightArm  63.4492 60.3757 104.534
RightForeArm  18.8451 24.4713 4.24494
RightHand  -0.239606 -0.288271 -5.45519
LeftUpLeg  -24.9266 14.0863 10.2411
LeftLeg  32.8585 6.8236 5.08846
LeftFoot  -14.4048 -0.524397 -22.5482
LeftToes  9.43379e-011 5.24309e-011 -4.66411e-011
1284
root  50.1907 36.9493 34.8835 -161.327 8.73589 177.441
RightUpLeg  -44.9302 -18.0668 -8.88925
RightLeg  21.2458 -10.1878 -4.54671
RightFoot  -10.764 -0.133762 11.9428
RightToes  -5.28216e-011 1.2921e-014 -6.02303e-014
Spine  20.2367 -1.08442 9.04976
Spine1  0.351289 2.29296 -7.46526
HEad  7.36334 12.7404 -13.3457
LeftShoulder1  3.33397 -9.0565 -20.8253
LeftArm  -10.3428 -16.5384 -50.114
LeftForeArm  -1.15592 -7.46005 -9.14839
LeftHand  0.0887601 -0.731669 -1.61864
RightShoulder  2.04698 8.88148 9.57275
RightArm  64.0935 53.3975 100.548
RightForeArm  22.1408 29.1662 5.10987
RightHand  -0.175869 -0.919817 -4.48184
LeftUpLeg  -21.5683 14.0312 11.3954
LeftLeg  31.9667 7.74282 5.53568
LeftFoot  -13.7862 -0.491097 -26.4127
LeftToes  9.43379e-011 5.24309e-011 -4.66411e-011
1285
root  51.5811 36.5202 33.5205 -161.3 11.3613 177.377
RightUpLeg  -47.8907 -13.8946 -10.0482
RightLeg  29.614 -8.26416 -5.27854
RightFoot  -6.33535 -0.834415 17.9576
RightToes  -5.28216e-011 1.2921e-014 -6.02303e-014
Spine  19.6199 -1.56485 8.39359
Spine1  0.258874 1.47615 -6.42433
HEad  3.97002 16.3113 -18.5679
LeftShoulder1  3.29397 -8.27277 -22.4045
LeftArm  -9.14012 -12.9075 -51.1322
LeftForeArm  -2.39798 -8.59375 -9.30016
LeftHand  0.119555 -1.0016 -2.08491
RightShoulder  2.27269 8.29712 12.6777
RightArm  63.6217 46.0129 95.5397
RightForeArm  26.2995 32.6817 5.71689
RightHand  -0.13242 -1.17297 -3.50958
LeftUpLeg  -18.2765 14.4695 13.753
LeftLeg  32.7152 8.21685 6.00573
LeftFoot  -12.7208 -0.300003 -30.4937
LeftToes  9.43379e-011 5.24309e-011 -4.66411e-011
